<?xml version="1.0" standalone="no"?>
<!DOCTYPE svg PUBLIC "-//W3C//DTD SVG 20010904//EN"
 "http://www.w3.org/TR/2001/REC-SVG-20010904/DTD/svg10.dtd">
<svg version="1.0" xmlns="http://www.w3.org/2000/svg"
 width="300.000000pt" height="300.000000pt" viewBox="0 0 300.000000 300.000000"
 preserveAspectRatio="xMidYMid meet">
<metadata>
Created by potrace 1.10, written by Peter Selinger 2001-2011
</metadata>
<g transform="translate(0.000000,300.000000) scale(0.100000,-0.100000)"
fill="#000000" stroke="none">
<path d="M604 1702 c-24 -35 -44 -66 -44 -70 0 -4 75 -6 167 -4 148 2 172 0
203 -16 87 -47 90 -166 5 -215 -11 -7 -68 -14 -128 -17 l-107 -5 0 98 0 97
-72 0 -73 0 2 -162 2 -163 188 0 c210 1 244 9 311 76 57 56 76 104 76 189 0
86 -22 140 -75 184 -65 55 -84 60 -253 66 l-158 5 -44 -63z m382 -9 c104 -55
142 -180 88 -284 -14 -28 -84 -107 -84 -95 0 3 -16 -2 -35 -10 -25 -10 -77
-14 -195 -14 l-160 0 0 114 c0 108 1 115 21 121 30 10 39 -9 39 -81 0 -51 4
-64 24 -83 23 -22 31 -23 134 -20 95 4 113 7 144 29 50 34 68 69 68 133 0 68
-28 113 -90 144 -39 20 -61 23 -167 23 -68 0 -123 4 -123 9 0 5 3 17 6 26 6
15 23 16 148 13 121 -3 147 -6 182 -25z"/>
<path d="M1170 1503 l0 -263 199 0 199 0 46 65 c25 36 46 68 46 70 0 3 -79 5
-175 5 l-175 0 0 30 0 30 123 0 122 1 40 61 c22 33 41 64 43 67 1 3 -72 4
-163 2 l-165 -3 0 31 0 31 133 0 132 0 43 63 c23 34 42 64 42 67 0 3 -110 5
-245 5 l-245 0 0 -262z m404 202 c-11 -27 -38 -34 -150 -36 -100 -1 -111 -3
-131 -25 -22 -24 -23 -31 -9 -72 11 -33 44 -42 162 -42 57 0 104 -4 104 -9 0
-5 -7 -17 -16 -25 -12 -13 -38 -16 -119 -16 -101 0 -104 -1 -125 -27 -25 -32
-20 -69 12 -95 17 -15 41 -18 145 -18 123 0 124 0 121 -22 -3 -23 -5 -23 -180
-26 l-178 -2 0 208 c0 115 3 212 7 215 3 4 86 7 184 7 156 0 178 -2 173 -15z"/>
<path d="M1680 1764 c0 -2 44 -70 98 -153 53 -83 126 -196 162 -252 83 -129
121 -149 172 -93 18 21 318 472 324 488 3 7 -25 10 -83 9 l-88 -2 -73 -113
c-40 -62 -86 -135 -101 -161 l-28 -48 -59 93 c-93 147 -122 192 -136 210 -10
12 -34 17 -100 20 -49 3 -88 3 -88 2z m172 -73 c14 -16 32 -39 39 -52 25 -49
103 -165 127 -191 14 -16 33 -28 43 -28 21 0 68 53 105 117 16 26 31 50 34 53
4 3 19 26 33 51 37 64 59 81 97 77 l31 -3 -67 -105 c-173 -272 -209 -320 -238
-320 -18 0 -33 14 -58 53 -44 66 -161 246 -205 314 -18 28 -33 54 -33 57 0 3
15 6 33 6 24 0 41 -8 59 -29z"/>
</g>
</svg>
